<svg width="100" height="100" viewBox="0 0 100 100" fill="none" xmlns="http://www.w3.org/2000/svg">
<path d="M83.5417 45.8333H16.4583C14.2722 45.8333 12.5 47.6055 12.5 49.7917V50.2083C12.5 52.3945 14.2722 54.1667 16.4583 54.1667H83.5417C85.7278 54.1667 87.5 52.3945 87.5 50.2083V49.7917C87.5 47.6055 85.7278 45.8333 83.5417 45.8333Z" fill="black"/>
<path d="M83.5417 66.6667H16.4583C14.2722 66.6667 12.5 68.4389 12.5 70.625V71.0417C12.5 73.2278 14.2722 75 16.4583 75H83.5417C85.7278 75 87.5 73.2278 87.5 71.0417V70.625C87.5 68.4389 85.7278 66.6667 83.5417 66.6667Z" fill="black"/>
<path d="M83.5417 25H16.4583C14.2722 25 12.5 26.7722 12.5 28.9583V29.375C12.5 31.5611 14.2722 33.3333 16.4583 33.3333H83.5417C85.7278 33.3333 87.5 31.5611 87.5 29.375V28.9583C87.5 26.7722 85.7278 25 83.5417 25Z" fill="black"/>
</svg>
