<svg width="216" height="314" viewBox="0 0 216 314" fill="none" xmlns="http://www.w3.org/2000/svg">
<path d="M47.0126 133.99C50.8603 135.667 60.2892 135.399 60.3033 135.399C60.3174 135.399 58.2737 129.226 58.0905 128.859C56.0187 124.533 49.479 117.373 44.1514 118.106C43.2711 118.25 42.4309 118.577 41.6855 119.067C40.94 119.557 40.3062 120.199 39.8249 120.95C39.3437 121.701 39.0259 122.545 38.8923 123.427C38.7587 124.309 38.8122 125.209 39.0493 126.069C39.9373 129.818 43.7286 132.552 47.0126 133.99Z" fill="#38B9FA"/>
<path d="M16.7886 111.396C23.116 112.309 36.4171 108.455 37.4865 108.143C39.6703 115.743 42.365 123.186 45.5519 130.423C47.3789 134.678 49.3618 138.889 51.3892 143.078C50.1861 141.296 49.1613 139.714 48.8939 139.513C43.9478 133.787 31.0699 125.611 23.1606 128.93C21.8769 129.517 20.7313 130.367 19.7982 131.426C18.8651 132.485 18.1656 133.729 17.7452 135.076C17.3248 136.424 17.1929 137.845 17.3582 139.246C17.5235 140.648 17.9823 141.999 18.7046 143.212C21.601 148.47 28.5078 151.076 34.1224 151.878C39.7369 152.681 51.211 149.65 54.1742 148.804L56.5582 153.616C60.4126 161.281 64.2892 168.923 67.8539 176.52C69.1239 179.216 70.2602 181.889 71.4188 184.585C70.3271 183.003 69.4136 181.689 69.1908 181.488C64.2224 175.762 51.367 167.586 43.4576 170.905C42.1739 171.492 41.0282 172.343 40.0951 173.402C39.162 174.461 38.4625 175.704 38.0421 177.052C37.6217 178.399 37.4899 179.82 37.6553 181.221C37.8206 182.623 38.2793 183.974 39.0016 185.187C41.8757 190.445 48.8047 193.052 54.397 193.854C59.9892 194.656 70.394 191.915 73.9587 190.935C75.0727 193.72 76.1866 196.505 77.1001 199.245C77.7017 201.139 78.4146 202.922 78.9048 204.838C79.3949 206.754 79.9743 208.625 80.4867 210.497C81.3556 214.128 82.269 217.871 83.0265 221.414C83.5835 223.887 84.0515 226.271 84.5416 228.655C83.3163 225.959 80.8208 220.768 80.5535 220.344C76.5208 213.928 64.9576 203.902 56.714 205.996C55.3669 206.385 54.1161 207.051 53.042 207.953C51.9679 208.854 51.0943 209.97 50.4773 211.229C49.8604 212.488 49.5137 213.862 49.4597 215.263C49.4057 216.664 49.6455 218.061 50.1637 219.364C52.2135 225.001 58.6525 228.61 64.0665 230.259C70.0375 232.086 83.2271 230.437 84.8758 230.259C85.6778 234.202 86.4131 238.035 87.1038 241.688C87.4602 243.605 87.7498 245.409 88.0395 247.236H93.2976C92.8966 245.142 92.4955 243.003 92.0499 240.753C91.2702 236.742 90.3566 232.487 89.354 228.098C93.338 226.516 97.2218 224.693 100.984 222.639C105.44 227.34 116.58 232.866 117.895 233.556C116.379 237.299 114.887 240.909 113.439 244.295C112.993 245.32 112.57 246.256 112.124 247.236H117.672C117.805 246.902 117.939 246.59 118.073 246.234C119.632 242.468 121.214 238.391 122.818 234.202C124.4 234.537 137.479 237.188 143.561 235.807C149.086 234.559 155.792 231.351 158.266 225.981C158.89 224.715 159.241 223.332 159.296 221.922C159.352 220.512 159.11 219.106 158.587 217.795C158.064 216.484 157.271 215.298 156.26 214.313C155.249 213.328 154.042 212.567 152.718 212.079C144.675 209.383 132.376 218.517 127.876 224.622C127.608 224.979 125.158 229.212 123.665 231.908C124.311 230.192 124.935 228.543 125.581 226.761C126.873 223.263 128.054 219.721 129.324 215.933C129.881 214.061 130.438 212.19 131.017 210.296C131.597 208.402 131.998 206.397 132.532 204.414C133.624 199.825 134.493 195.101 135.295 190.356C138.347 191.47 149.309 195.28 154.99 194.812C160.672 194.344 167.735 192.339 171.01 187.303C171.82 186.148 172.377 184.834 172.645 183.449C172.914 182.063 172.888 180.637 172.568 179.262C172.249 177.888 171.643 176.596 170.791 175.47C169.939 174.345 168.86 173.413 167.623 172.732C160.07 168.856 146.546 176.03 141.177 181.377C140.843 181.711 137.412 185.989 135.562 188.351C136.03 185.499 136.476 182.625 136.855 179.706C137.902 171.284 138.682 162.729 139.528 154.196C139.773 151.589 140.063 148.982 140.33 146.375C141.422 146.799 154.344 151.611 160.694 151.165C166.353 150.764 173.438 148.692 176.713 143.657C177.527 142.503 178.087 141.189 178.357 139.803C178.628 138.417 178.602 136.989 178.283 135.613C177.963 134.238 177.356 132.945 176.502 131.82C175.648 130.695 174.566 129.764 173.327 129.086C165.796 125.187 152.25 132.384 146.881 137.731C146.48 138.132 141.556 144.281 140.375 145.907C140.976 140.159 141.645 134.456 142.603 128.863C143.749 121.287 145.386 113.792 147.504 106.428C148.017 106.628 161.474 111.708 168.002 111.24C173.639 110.839 180.724 108.767 183.999 103.754C184.81 102.6 185.368 101.288 185.638 99.903C185.909 98.5185 185.884 97.0925 185.567 95.718C185.249 94.3436 184.646 93.0513 183.797 91.9253C182.947 90.7994 181.869 89.8651 180.634 89.183C173.082 85.284 159.536 92.4581 154.166 97.8053C153.743 98.2286 148.462 104.846 147.594 106.116C147.594 105.692 147.794 105.247 147.928 104.823C150.253 97.4921 153.236 90.3857 156.84 83.5907C158.756 79.8032 160.828 76.3052 162.9 72.941C165.306 74.1441 176.401 79.6249 182.305 79.7586C188.21 79.8923 195.228 78.7115 199.038 74.0773C199.971 73.0177 200.67 71.7734 201.09 70.4254C201.511 69.0774 201.642 67.656 201.476 66.2539C201.31 64.8518 200.85 63.5004 200.127 62.2879C199.403 61.0753 198.433 60.0288 197.278 59.2166C190.193 54.5155 175.956 60.1746 170.029 64.8979C169.717 65.143 166.732 68.1285 164.571 70.3342C165.529 68.8192 166.509 67.2596 167.445 65.8782C171.01 60.5311 174.597 55.8301 177.805 51.7306C179.632 49.5026 181.348 47.2746 182.974 45.4031C185.959 45.4031 197.968 44.9798 203.226 42.529C208.484 40.0782 214.21 35.6222 215.458 29.7626C215.796 28.3925 215.842 26.9667 215.594 25.5776C215.345 24.1885 214.808 22.8671 214.016 21.6992C213.224 20.5312 212.195 19.5427 210.996 18.7978C209.798 18.0529 208.456 17.5681 207.058 17.375C198.614 16.4616 188.566 28.0471 185.492 34.9761C185.224 35.5777 182.127 45.4253 182.283 45.4031H182.461C180.857 47.23 179.164 49.1907 177.359 51.3741C174.062 55.429 170.364 60.0409 166.687 65.3435C162.631 71.002 158.912 76.8941 155.547 82.9892C151.756 89.7893 148.587 96.9181 146.079 104.289V104.556C146.079 102.061 146.079 95.1094 145.945 94.5747C144.965 87.0441 138.659 73.0969 130.349 71.5373C128.954 71.3199 127.529 71.3988 126.167 71.7689C124.804 72.139 123.535 72.7921 122.442 73.6854C121.349 74.5788 120.457 75.6924 119.823 76.9538C119.189 78.2152 118.828 79.596 118.763 81.0063C118.273 86.9773 122.596 92.9483 126.829 96.7358C131.597 100.991 144.809 105.113 145.878 105.425C143.497 112.984 141.629 120.696 140.286 128.507C139.461 132.963 138.793 137.642 138.169 142.276C138.169 140.048 138.169 138.199 138.058 137.82C137.1 130.289 130.795 116.342 122.462 114.783C121.067 114.565 119.642 114.644 118.28 115.014C116.917 115.384 115.648 116.037 114.555 116.931C113.462 117.824 112.57 118.938 111.936 120.199C111.302 121.46 110.941 122.841 110.876 124.251C110.386 130.222 114.709 136.193 118.942 139.981C123.175 143.769 134.426 147.534 137.412 148.492C137.189 150.274 136.944 152.034 136.743 153.817C135.718 162.35 134.738 170.861 133.513 179.171C133.089 182.09 132.555 184.964 132.042 187.838C132.042 185.944 132.042 184.318 132.042 184.073C131.062 176.565 124.757 162.595 116.446 161.058C115.053 160.837 113.628 160.912 112.266 161.28C110.904 161.647 109.634 162.298 108.541 163.19C107.447 164.081 106.554 165.194 105.92 166.454C105.286 167.715 104.925 169.095 104.861 170.504C104.371 176.475 108.693 182.469 112.926 186.234C117.159 189.999 127.319 193.43 130.75 194.589C130.126 197.508 129.502 200.448 128.767 203.256C128.232 205.15 127.854 207.043 127.185 208.915C126.517 210.786 125.982 212.658 125.381 214.507C124.111 218.005 122.818 221.637 121.482 225.023C120.59 227.385 119.677 229.635 118.763 231.885C119.231 228.967 120.011 223.241 120.011 222.773C119.918 216.095 118.115 209.552 114.775 203.768C114.799 203.023 114.754 202.277 114.642 201.54C114.467 200.139 113.999 198.789 113.268 197.581C112.537 196.372 111.559 195.332 110.399 194.526C109.238 193.721 107.921 193.17 106.533 192.908C105.145 192.646 103.717 192.68 102.343 193.007C94.1442 195.235 88.9753 209.605 88.552 217.181C88.552 217.626 88.8193 222.483 89.0421 225.558C88.641 223.775 88.2623 222.038 87.8167 220.211C86.9478 216.579 85.9898 212.992 84.965 209.071C84.408 207.199 83.8287 205.35 83.2717 203.456C82.7147 201.562 81.9349 199.624 81.2887 197.708C79.6623 193.252 77.7908 188.796 75.8302 184.34C78.9939 183.583 90.2452 180.731 94.7457 177.255C99.2462 173.78 104.014 168.165 103.97 162.172C104.005 160.762 103.744 159.361 103.204 158.059C102.664 156.757 101.856 155.583 100.833 154.612C99.8105 153.642 98.5953 152.897 97.2665 152.427C95.9377 151.956 94.5249 151.769 93.1193 151.878C84.6753 152.792 77.3452 166.249 75.8079 173.668C75.8079 174.136 75.2063 179.595 75.0058 182.58C73.8027 179.929 72.5996 177.3 71.2851 174.648C67.5198 167.051 63.4649 159.476 59.4545 151.901C58.2291 149.673 57.026 147.267 55.8229 144.927C56.9369 144.682 70.3939 141.563 75.4514 137.686C79.9074 134.233 84.6976 128.596 84.653 122.603C84.692 121.192 84.4334 119.79 83.8944 118.486C83.3553 117.182 82.5477 116.007 81.5241 115.036C80.5006 114.065 79.2841 113.32 77.9537 112.85C76.6233 112.381 75.209 112.196 73.8027 112.309C65.3587 113.223 58.0286 126.68 56.4913 134.099C56.4913 134.656 55.6669 142.499 55.6 144.504C52.9264 139.402 50.3197 134.255 47.958 129.108C44.7486 122.153 41.9805 115.001 39.67 107.698C40.2047 107.698 54.241 104.378 59.4322 100.412C63.8882 96.9586 68.6784 91.3218 68.6338 85.3286C68.6728 83.9183 68.4142 82.5155 67.8751 81.2117C67.3361 79.9079 66.5285 78.7323 65.5049 77.7613C64.4814 76.7903 63.2649 76.0457 61.9345 75.576C60.6041 75.1064 59.1898 74.9221 57.7835 75.0353C49.3395 75.9488 42.0094 89.4058 40.4721 96.825C40.3607 97.4265 39.6031 105.871 39.5808 107.408C39.4471 106.985 39.269 106.561 39.1353 106.138C37.0424 98.7404 35.6036 91.1733 34.8353 83.5239C34.3674 79.313 34.1445 75.2358 34.0331 71.2923C36.7067 70.9581 48.9161 69.3317 53.9736 66.2793C59.0312 63.227 64.1777 58.2585 64.7793 52.3098C64.9119 50.9298 64.7569 49.5373 64.324 48.2203C63.8911 46.9033 63.1898 45.6904 62.2644 44.6582C61.3389 43.626 60.2096 42.7969 58.9474 42.2233C57.6853 41.6497 56.3179 41.3442 54.9316 41.3259C46.443 41.3259 37.6871 53.8694 35.3477 61.0881C35.214 61.4891 34.3674 65.5441 33.7881 68.6187C33.7881 66.8363 33.7881 65.0093 33.7881 63.2938C33.7881 56.8772 34.2114 50.9953 34.6124 45.7818C34.8575 42.8186 35.1472 40.1451 35.4368 37.6497C37.9099 35.9787 47.713 29.0274 50.743 24.0813C53.7731 19.1352 56.1126 12.273 53.9069 6.68075C53.434 5.35139 52.6864 4.13651 51.7129 3.11521C50.7394 2.09391 49.5617 1.28909 48.2565 0.753143C46.9513 0.217192 45.5479 -0.0378821 44.1375 0.00454374C42.7272 0.0469696 41.3417 0.385906 40.071 0.999345C32.5182 4.89832 30.5352 20.0932 31.7829 27.5792C31.7829 28.2253 34.7461 38.1399 34.8798 38.0507L35.0135 37.9394C34.6793 40.3456 34.3674 42.9078 34.0554 45.7373C33.543 50.9285 33.0083 56.8772 32.8524 63.2715C32.6254 70.2191 32.789 77.174 33.3425 84.1032C33.9535 91.8595 35.2508 99.5464 37.2191 107.074V107.341C35.8824 105.247 31.9612 99.4985 31.6047 99.0975C26.6363 93.3493 13.7809 85.1949 5.87153 88.5146C4.58783 89.1012 3.4421 89.9518 2.50902 91.0108C1.57594 92.0698 0.876438 93.3134 0.45605 94.6608C0.0356619 96.0081 -0.0961476 97.4289 0.0691715 98.8305C0.234491 100.232 0.693251 101.583 1.41556 102.796C4.28966 107.987 11.1963 110.572 16.7886 111.396Z" fill="#38B9FA"/>
<path d="M142.402 136.062C142.472 136.062 144.107 129.79 144.163 129.381C144.826 124.631 143.318 115.061 138.526 112.722C137.711 112.355 136.829 112.165 135.936 112.162C135.043 112.16 134.159 112.345 133.343 112.707C132.527 113.069 131.796 113.598 131.197 114.261C130.599 114.924 130.148 115.706 129.872 116.555C128.575 120.121 130.21 124.49 132.169 127.507C134.41 131.072 142.388 136.062 142.402 136.062Z" fill="#38B9FA"/>
<path d="M70.6484 244.192H140.64V289.293C140.64 295.647 138.115 301.742 133.622 306.235C129.129 310.729 123.034 313.253 116.68 313.253H94.6366C88.282 313.253 82.1877 310.729 77.6943 306.235C73.2009 301.742 70.6766 295.647 70.6766 289.293V244.192H70.6484Z" fill="white"/>
<path d="M116.652 314H94.6366C88.0899 313.992 81.8135 311.389 77.1843 306.759C72.5551 302.13 69.9512 295.854 69.9437 289.307V243.487H141.345V289.307C141.337 295.854 138.733 302.13 134.104 306.759C129.475 311.389 123.198 313.992 116.652 314V314ZM71.3531 244.939V289.349C71.3606 295.522 73.816 301.44 78.1809 305.805C82.5458 310.17 88.4637 312.625 94.6366 312.633H116.652C122.824 312.625 128.742 310.17 133.107 305.805C137.472 301.44 139.928 295.522 139.935 289.349V244.896L71.3531 244.939Z" fill="#38B9FA"/>
<path d="M140.64 279.371V270.914C135.073 275.298 127.842 274.325 122.557 270.985C112.959 264.924 101.754 269.66 101.289 269.871C100.824 270.051 100.401 270.322 100.044 270.669C99.6865 271.017 99.4034 271.433 99.2112 271.892C99.0191 272.352 98.922 272.846 98.9256 273.344C98.9293 273.842 99.0337 274.334 99.2326 274.791C99.4314 275.247 99.7206 275.659 100.083 276.001C100.445 276.343 100.873 276.608 101.34 276.781C101.807 276.953 102.305 277.029 102.802 277.005C103.3 276.98 103.787 276.855 104.235 276.637C104.235 276.637 112.381 273.282 118.611 277.229C122.589 279.808 127.217 281.205 131.958 281.259C134.952 281.241 137.909 280.597 140.64 279.371V279.371Z" fill="white"/>
<path d="M131.958 281.879C127.087 281.823 122.331 280.386 118.244 277.736C112.381 274.029 104.587 277.172 104.517 277.2C103.985 277.446 103.41 277.583 102.824 277.603C102.239 277.623 101.655 277.526 101.108 277.318C100.561 277.109 100.061 276.794 99.6368 276.389C99.2131 275.985 98.8744 275.5 98.6407 274.963C98.4069 274.426 98.2828 273.848 98.2756 273.262C98.2684 272.677 98.3782 272.096 98.5986 271.553C98.8191 271.01 99.1456 270.517 99.5592 270.103C99.9729 269.688 100.465 269.36 101.007 269.138C101.486 268.927 113.044 264.064 122.938 270.308C127.349 273.127 134.509 274.748 140.203 270.308L141.345 269.406V279.822L140.922 280.005C138.096 281.246 135.044 281.884 131.958 281.879V281.879ZM111.395 274.508C114.07 274.447 116.707 275.156 118.991 276.552C122.038 278.596 125.533 279.875 129.18 280.277C132.826 280.679 136.516 280.194 139.935 278.863V272.197C133.875 276.101 126.687 274.339 122.177 271.492C112.917 265.643 102.022 270.238 101.571 270.435C101.188 270.575 100.837 270.791 100.541 271.072C100.245 271.352 100.009 271.69 99.8485 272.064C99.6878 272.439 99.6055 272.843 99.6066 273.251C99.6078 273.658 99.6923 274.061 99.8552 274.435C100.018 274.809 100.256 275.146 100.553 275.424C100.851 275.703 101.203 275.917 101.587 276.055C101.971 276.193 102.379 276.25 102.785 276.224C103.192 276.198 103.59 276.089 103.953 275.904C106.334 275.016 108.853 274.557 111.395 274.55V274.508Z" fill="#38B9FA"/>
<path d="M70.6484 278.272C76.0444 277.349 81.2708 275.619 86.152 273.141C98.4139 267.25 119.71 258.808 124.558 268.49C124.775 268.924 125.075 269.311 125.441 269.629C125.807 269.948 126.232 270.19 126.692 270.344C127.152 270.498 127.638 270.56 128.122 270.526C128.606 270.492 129.078 270.363 129.512 270.146C129.947 269.93 130.334 269.63 130.652 269.264C130.97 268.897 131.213 268.472 131.367 268.012C131.52 267.552 131.582 267.066 131.548 266.582C131.514 266.099 131.385 265.626 131.169 265.192C125.305 253.494 109.097 253.917 82.9667 266.489C79.0862 268.439 74.9623 269.861 70.7048 270.717L70.6484 278.272Z" fill="white"/>
<path d="M69.9437 279.061V270.181L70.5215 270.083C74.7141 269.203 78.7744 267.782 82.6002 265.854C109.139 253.085 125.672 252.761 131.732 264.882C132.225 265.921 132.291 267.112 131.916 268.2C131.541 269.287 130.754 270.184 129.725 270.699C128.697 271.213 127.507 271.304 126.412 270.952C125.317 270.599 124.404 269.832 123.868 268.814C119.132 259.315 96.0883 269.124 86.4057 273.775C81.4737 276.275 76.1958 278.023 70.747 278.962L69.9437 279.061ZM71.3531 271.323V277.412C76.371 276.433 81.2315 274.774 85.7996 272.479C98.287 266.475 120.02 257.92 125.136 268.152C125.305 268.508 125.543 268.828 125.836 269.092C126.129 269.356 126.472 269.56 126.844 269.691C127.216 269.822 127.61 269.878 128.004 269.855C128.398 269.833 128.784 269.733 129.139 269.561C129.492 269.387 129.806 269.144 130.062 268.846C130.319 268.548 130.513 268.202 130.633 267.828C130.758 267.456 130.809 267.062 130.783 266.671C130.756 266.279 130.653 265.896 130.478 265.544C124.84 254.269 108.928 254.805 83.2063 267.165C79.4414 269.04 75.4606 270.446 71.3531 271.351V271.323Z" fill="#38B9FA"/>
<path d="M82.4171 261.105C82.4171 261.621 82.2638 262.126 81.9766 262.555C81.6895 262.984 81.2815 263.318 80.8042 263.515C80.327 263.712 79.802 263.763 79.2958 263.661C78.7896 263.56 78.325 263.31 77.961 262.944C77.5969 262.578 77.3497 262.112 77.2507 261.605C77.1517 261.098 77.2053 260.574 77.4048 260.097C77.6043 259.621 77.9407 259.215 78.3713 258.93C78.8019 258.645 79.3074 258.495 79.8237 258.498C80.1655 258.498 80.5039 258.565 80.8194 258.696C81.135 258.828 81.4215 259.02 81.6625 259.262C81.9035 259.504 82.0942 259.792 82.2237 260.108C82.3532 260.425 82.4189 260.763 82.4171 261.105V261.105Z" fill="white"/>
<path d="M79.8377 264.403C79.1854 264.403 78.5478 264.21 78.0055 263.847C77.4631 263.485 77.0404 262.97 76.7907 262.367C76.5411 261.765 76.4758 261.102 76.603 260.462C76.7303 259.822 77.0444 259.234 77.5057 258.773C77.9669 258.312 78.5546 257.998 79.1943 257.871C79.8341 257.743 80.4972 257.809 81.0998 258.058C81.7025 258.308 82.2176 258.731 82.58 259.273C82.9424 259.815 83.1358 260.453 83.1358 261.105C83.1321 261.979 82.7834 262.815 82.1657 263.433C81.548 264.051 80.7112 264.399 79.8377 264.403ZM79.8377 259.217C79.4642 259.217 79.0991 259.327 78.7885 259.535C78.4779 259.742 78.2358 260.037 78.0929 260.382C77.9499 260.727 77.9126 261.107 77.9854 261.474C78.0583 261.84 78.2381 262.176 78.5023 262.441C78.7664 262.705 79.1029 262.885 79.4693 262.957C79.8356 263.03 80.2154 262.993 80.5605 262.85C80.9056 262.707 81.2005 262.465 81.4081 262.154C81.6156 261.844 81.7264 261.479 81.7264 261.105C81.7227 260.605 81.5225 260.127 81.1691 259.774C80.8157 259.42 80.3375 259.22 79.8377 259.217V259.217Z" fill="#38B9FA"/>
<path d="M97.385 255.904C97.3878 256.42 97.2372 256.925 96.9524 257.356C96.6676 257.787 96.2614 258.123 95.7852 258.323C95.309 258.522 94.7842 258.576 94.2775 258.477C93.7708 258.378 93.305 258.131 92.9389 257.766C92.5729 257.402 92.3231 256.938 92.2213 256.432C92.1196 255.925 92.1704 255.4 92.3673 254.923C92.5642 254.446 92.8984 254.038 93.3275 253.751C93.7566 253.464 94.2613 253.31 94.7776 253.31C95.1193 253.308 95.4581 253.374 95.7743 253.504C96.0906 253.633 96.3782 253.824 96.6205 254.065C96.8628 254.306 97.055 254.592 97.1863 254.908C97.3175 255.224 97.385 255.562 97.385 255.904V255.904Z" fill="white"/>
<path d="M94.7777 259.216C94.1227 259.216 93.4823 259.022 92.9376 258.658C92.3929 258.294 91.9684 257.777 91.7177 257.172C91.467 256.566 91.4014 255.9 91.5292 255.258C91.657 254.615 91.9724 254.025 92.4357 253.562C92.8989 253.099 93.489 252.783 94.1315 252.656C94.774 252.528 95.44 252.593 96.0452 252.844C96.6504 253.095 97.1677 253.519 97.5316 254.064C97.8955 254.609 98.0898 255.249 98.0898 255.904C98.0898 256.783 97.7409 257.625 97.1197 258.246C96.4986 258.867 95.6562 259.216 94.7777 259.216ZM94.7777 254.016C94.4008 254.016 94.0323 254.127 93.7191 254.337C93.4059 254.547 93.1621 254.845 93.0185 255.193C92.875 255.542 92.8381 255.925 92.9127 256.295C92.9872 256.664 93.1698 257.003 93.4373 257.269C93.7048 257.534 94.0452 257.714 94.4152 257.786C94.7852 257.858 95.1682 257.818 95.5156 257.672C95.8631 257.526 96.1592 257.28 96.3666 256.965C96.574 256.65 96.6832 256.281 96.6804 255.904C96.6804 255.655 96.6311 255.408 96.5353 255.178C96.4395 254.948 96.2992 254.739 96.1223 254.564C95.9454 254.388 95.7356 254.249 95.5048 254.155C95.274 254.061 95.0269 254.014 94.7777 254.016V254.016Z" fill="#38B9FA"/>
<path d="M114.932 252C114.935 252.517 114.784 253.023 114.499 253.454C114.213 253.885 113.806 254.221 113.329 254.42C112.852 254.62 112.327 254.672 111.82 254.572C111.313 254.472 110.847 254.223 110.481 253.858C110.116 253.492 109.867 253.027 109.767 252.519C109.667 252.012 109.719 251.487 109.919 251.01C110.118 250.533 110.454 250.126 110.885 249.84C111.316 249.555 111.822 249.404 112.339 249.407C113.027 249.407 113.686 249.68 114.173 250.166C114.659 250.653 114.932 251.312 114.932 252V252Z" fill="white"/>
<path d="M112.339 255.312C111.683 255.315 111.041 255.123 110.495 254.761C109.948 254.398 109.522 253.882 109.269 253.277C109.016 252.672 108.948 252.006 109.075 251.362C109.201 250.719 109.515 250.127 109.978 249.663C110.44 249.198 111.031 248.881 111.673 248.752C112.316 248.623 112.983 248.688 113.589 248.938C114.195 249.189 114.713 249.613 115.078 250.158C115.442 250.703 115.637 251.344 115.637 252C115.637 252.876 115.29 253.716 114.672 254.337C114.054 254.958 113.215 255.308 112.339 255.312V255.312ZM112.339 250.111C111.961 250.108 111.592 250.218 111.277 250.426C110.962 250.634 110.715 250.931 110.57 251.279C110.424 251.627 110.385 252.011 110.458 252.382C110.531 252.752 110.713 253.092 110.979 253.359C111.246 253.626 111.587 253.808 111.957 253.881C112.328 253.954 112.711 253.915 113.06 253.769C113.408 253.623 113.705 253.377 113.913 253.062C114.121 252.747 114.23 252.377 114.228 252C114.224 251.5 114.024 251.022 113.67 250.668C113.317 250.315 112.839 250.115 112.339 250.111V250.111Z" fill="#38B9FA"/>
<path d="M132.155 254.283C132.155 254.8 132.002 255.304 131.715 255.733C131.428 256.162 131.02 256.497 130.542 256.693C130.065 256.89 129.54 256.941 129.034 256.839C128.528 256.738 128.063 256.488 127.699 256.122C127.335 255.756 127.088 255.29 126.989 254.783C126.89 254.276 126.943 253.752 127.143 253.276C127.342 252.799 127.679 252.393 128.109 252.108C128.54 251.824 129.046 251.673 129.562 251.676C129.904 251.676 130.242 251.743 130.557 251.875C130.873 252.006 131.16 252.198 131.401 252.44C131.642 252.683 131.832 252.97 131.962 253.286C132.091 253.603 132.157 253.941 132.155 254.283V254.283Z" fill="white"/>
<path d="M129.562 257.581C128.906 257.584 128.263 257.392 127.717 257.029C127.17 256.666 126.743 256.149 126.491 255.543C126.238 254.937 126.171 254.27 126.299 253.626C126.426 252.983 126.742 252.391 127.206 251.927C127.67 251.463 128.261 251.147 128.905 251.02C129.549 250.893 130.216 250.959 130.822 251.212C131.428 251.464 131.945 251.891 132.308 252.438C132.671 252.985 132.863 253.627 132.86 254.283C132.856 255.157 132.508 255.993 131.89 256.611C131.272 257.229 130.436 257.578 129.562 257.581ZM129.562 252.381C129.299 252.358 129.035 252.39 128.785 252.475C128.536 252.56 128.306 252.696 128.112 252.874C127.918 253.052 127.763 253.269 127.657 253.51C127.55 253.752 127.496 254.013 127.496 254.276C127.496 254.54 127.55 254.801 127.657 255.042C127.763 255.283 127.918 255.5 128.112 255.678C128.306 255.856 128.536 255.992 128.785 256.077C129.035 256.162 129.299 256.195 129.562 256.172C130.037 256.131 130.479 255.913 130.801 255.562C131.123 255.211 131.301 254.753 131.301 254.276C131.301 253.8 131.123 253.341 130.801 252.99C130.479 252.639 130.037 252.421 129.562 252.381Z" fill="#38B9FA"/>
<path d="M110.704 281.584C110.704 282.1 110.551 282.605 110.264 283.034C109.976 283.463 109.568 283.797 109.091 283.994C108.614 284.191 108.089 284.242 107.583 284.14C107.076 284.038 106.612 283.789 106.248 283.422C105.884 283.056 105.637 282.59 105.538 282.084C105.439 281.577 105.492 281.052 105.692 280.576C105.891 280.1 106.228 279.694 106.658 279.409C107.089 279.124 107.594 278.974 108.111 278.976C108.452 278.976 108.791 279.044 109.106 279.175C109.422 279.306 109.708 279.499 109.949 279.741C110.19 279.983 110.381 280.271 110.511 280.587C110.64 280.903 110.706 281.242 110.704 281.584V281.584Z" fill="white"/>
<path d="M108.111 284.882C107.454 284.884 106.812 284.692 106.265 284.329C105.718 283.966 105.292 283.449 105.039 282.843C104.787 282.238 104.72 281.571 104.847 280.927C104.975 280.283 105.291 279.691 105.755 279.227C106.219 278.763 106.81 278.448 107.454 278.32C108.098 278.193 108.765 278.26 109.371 278.512C109.976 278.765 110.493 279.191 110.856 279.738C111.219 280.285 111.411 280.927 111.409 281.584C111.405 282.457 111.056 283.294 110.439 283.911C109.821 284.529 108.984 284.878 108.111 284.882ZM108.111 279.681C107.848 279.658 107.583 279.69 107.334 279.775C107.084 279.86 106.855 279.996 106.661 280.174C106.466 280.353 106.311 280.569 106.205 280.811C106.099 281.052 106.044 281.313 106.044 281.576C106.044 281.84 106.099 282.101 106.205 282.342C106.311 282.584 106.466 282.8 106.661 282.979C106.855 283.157 107.084 283.293 107.334 283.378C107.583 283.463 107.848 283.495 108.111 283.472C108.585 283.431 109.027 283.214 109.349 282.863C109.671 282.512 109.85 282.053 109.85 281.576C109.85 281.1 109.671 280.641 109.349 280.29C109.027 279.939 108.585 279.722 108.111 279.681Z" fill="#38B9FA"/>
<path d="M123.713 286.784C123.713 287.3 123.56 287.804 123.274 288.233C122.987 288.662 122.58 288.996 122.103 289.193C121.627 289.391 121.103 289.442 120.597 289.342C120.091 289.241 119.626 288.993 119.262 288.628C118.897 288.264 118.649 287.799 118.548 287.293C118.448 286.787 118.499 286.263 118.697 285.787C118.894 285.31 119.228 284.903 119.657 284.616C120.086 284.33 120.59 284.177 121.106 284.177C121.449 284.175 121.788 284.241 122.106 284.372C122.423 284.502 122.711 284.694 122.953 284.937C123.196 285.179 123.388 285.467 123.518 285.784C123.649 286.102 123.715 286.442 123.713 286.784Z" fill="white"/>
<path d="M121.106 290.082C120.45 290.082 119.809 289.888 119.264 289.523C118.719 289.158 118.294 288.64 118.044 288.034C117.794 287.428 117.729 286.762 117.858 286.119C117.987 285.476 118.304 284.886 118.769 284.423C119.233 283.96 119.825 283.646 120.468 283.52C121.111 283.394 121.778 283.461 122.383 283.714C122.988 283.967 123.504 284.394 123.866 284.94C124.229 285.487 124.42 286.129 124.418 286.784C124.418 287.219 124.332 287.649 124.165 288.05C123.999 288.451 123.754 288.815 123.447 289.121C123.139 289.428 122.774 289.67 122.372 289.835C121.97 290 121.54 290.084 121.106 290.082ZM121.106 284.882C120.729 284.882 120.361 284.993 120.048 285.202C119.735 285.411 119.492 285.708 119.348 286.056C119.204 286.404 119.166 286.786 119.239 287.155C119.313 287.525 119.494 287.864 119.76 288.13C120.026 288.396 120.365 288.577 120.734 288.65C121.103 288.724 121.486 288.686 121.834 288.542C122.181 288.398 122.479 288.154 122.688 287.841C122.897 287.528 123.008 287.161 123.008 286.784C123.008 286.534 122.959 286.287 122.863 286.056C122.768 285.825 122.628 285.615 122.451 285.439C122.274 285.262 122.064 285.122 121.834 285.026C121.603 284.931 121.355 284.882 121.106 284.882V284.882Z" fill="#38B9FA"/>
<path d="M136.708 286.784C136.708 287.301 136.554 287.805 136.267 288.235C135.98 288.664 135.572 288.998 135.095 289.195C134.617 289.392 134.092 289.442 133.586 289.341C133.08 289.239 132.616 288.989 132.252 288.623C131.887 288.257 131.64 287.791 131.541 287.284C131.442 286.778 131.496 286.253 131.695 285.777C131.895 285.301 132.231 284.894 132.662 284.61C133.093 284.325 133.598 284.174 134.114 284.177C134.456 284.177 134.795 284.245 135.11 284.376C135.426 284.507 135.712 284.699 135.953 284.942C136.194 285.184 136.385 285.471 136.514 285.788C136.644 286.104 136.71 286.443 136.708 286.784V286.784Z" fill="white"/>
<path d="M134.114 290.082C133.458 290.085 132.816 289.893 132.269 289.53C131.722 289.167 131.295 288.65 131.043 288.044C130.79 287.438 130.724 286.771 130.851 286.127C130.978 285.484 131.294 284.892 131.758 284.428C132.222 283.964 132.814 283.648 133.457 283.521C134.101 283.394 134.768 283.46 135.374 283.713C135.98 283.965 136.497 284.392 136.86 284.939C137.223 285.486 137.415 286.128 137.412 286.784C137.409 287.658 137.06 288.494 136.442 289.112C135.825 289.73 134.988 290.079 134.114 290.082ZM134.114 284.881C133.852 284.859 133.587 284.891 133.337 284.976C133.088 285.061 132.859 285.197 132.664 285.375C132.47 285.553 132.315 285.77 132.209 286.011C132.103 286.253 132.048 286.513 132.048 286.777C132.048 287.041 132.103 287.302 132.209 287.543C132.315 287.784 132.47 288.001 132.664 288.179C132.859 288.357 133.088 288.493 133.337 288.578C133.587 288.663 133.852 288.695 134.114 288.673C134.589 288.632 135.031 288.414 135.353 288.063C135.675 287.712 135.853 287.253 135.853 286.777C135.853 286.301 135.675 285.842 135.353 285.491C135.031 285.14 134.589 284.922 134.114 284.881V284.881Z" fill="#38B9FA"/>
</svg>
